<?xml version="1.0" encoding="UTF-8"?>
<svg clip-rule="evenodd" fill-rule="evenodd" stroke-miterlimit="2" version="1.1" viewBox="0 0 150 150" xmlns="http://www.w3.org/2000/svg" xmlns:cc="http://creativecommons.org/ns#" xmlns:dc="http://purl.org/dc/elements/1.1/" xmlns:rdf="http://www.w3.org/1999/02/22-rdf-syntax-ns#">
<metadata>
<rdf:RDF>
<cc:Work rdf:about="">
<dc:format>image/svg+xml</dc:format>
<dc:type rdf:resource="http://purl.org/dc/dcmitype/StillImage"/>
<dc:title/>
</cc:Work>
</rdf:RDF>
</metadata>
<g transform="matrix(.99333 0 0 .99333 .50025 .50025)" fill-rule="nonzero">
<path d="m29.99 121.49c-12.731-4.712-29.57-15.605-29.57-43.081 0-27.576 22.718-77.988 74.58-77.988s74.58 50.412 74.58 77.988c0 27.476-16.839 38.369-29.57 43.081l-0.273 0.36c-1.707 20.157-17.271 27.727-44.737 27.727s-43.03-7.57-44.737-27.727z" fill="#fff"/>
<path d="m75 144.24c12.921 0 28.149-1.631 35.021-9.096 5.117-5.557 6.463-15.77 6.34-22.62-2.767-3.887-15.461-14.377-41.361-14.377s-38.594 10.49-41.361 14.377c-0.123 6.85 1.223 17.063 6.34 22.62 6.872 7.465 22.1 9.096 35.021 9.096zm-19.851-27.46c0 6.651 0.627 12.608 3.947 12.608 3.321 0 3.948-5.796 3.948-12.447s-0.144-12.446-3.746-12.446c-3.603 0-4.149 5.634-4.149 12.285zm39.702 0c0 6.651-0.627 12.608-3.947 12.608-3.321 0-3.948-5.796-3.948-12.447s0.144-12.446 3.746-12.446c3.603 0 4.149 5.634 4.149 12.285zm-89.171-38.379c0 4.64 0.494 8.669 1.371 12.198 11.047-8.758 17.327-33.602 11.092-51.976-8.434 13.711-12.463 29.166-12.463 39.778zm24.164 43.486c-12.847-4.755-29.844-15.748-29.844-43.477 0-27.728 22.852-78.41 75-78.41s75 50.682 75 78.41c0 27.729-16.997 38.722-29.844 43.477-1.725 20.371-17.399 28.113-45.156 28.113s-43.431-7.742-45.156-28.113zm102.01-83.264c-6.235 18.374 0.045 43.218 11.092 51.976 0.877-3.529 1.371-7.558 1.371-12.198 0-10.612-4.029-26.067-12.463-39.778zm-56.857-27.518c-19.527 0-35.357 15.395-35.357 34.387 0 18.991 15.83 34.387 35.357 34.387s35.357-15.396 35.357-34.387c0-18.992-15.83-34.387-35.357-34.387z" fill="#fa0e24"/>
</g>
<g transform="matrix(.95921 0 0 .95921 3.5097 5.6921)">
<g transform="matrix(.95108 0 0 .95108 -15.528 -57.575)" fill="#fff">
<g fill-rule="nonzero">
<path transform="matrix(39.089,0,0,39.089,45.224,96.042)" d="m0.089-0.245-0.073 0.119 0.158 0.113 0.262-0.024 0.098-0.195-0.274-0.131 0.033-0.056 0.14 0.091 0.071-0.134-0.157-0.088-0.227 0.032-0.102 0.174 0.267 0.135-0.035 0.053z"/>
<path transform="matrix(39.089,0,0,39.089,66.528,96.042)" d="m0.041-0.495-0.019 0.367 0.11 0.092 0.266 1e-3 0.093-0.102 0.044-0.256-0.194-0.029-0.013 0.233-0.106 0.016 0.035-0.296z"/>
<path transform="matrix(39.089,0,0,39.089,87.518,96.042)" d="m0.214-0.282-5e-3 -0.138 0.109 0.03-0.021 0.098zm-0.202-0.241 0.037 0.494 0.165-7e-3 1e-3 -0.142 0.136 8e-3 0.102-0.076 0.042-0.186-0.184-0.132z"/>
<path transform="matrix(39.089,0,0,39.089,106.71,96.042)" d="m0.086-0.492-0.065 0.274 0.052 0.181 0.355 0.016-0.017-0.137-0.186 0.011-6e-3 -0.05 0.132 0.018 0.023-0.109-0.146-0.016 0.012-0.047 0.189 0.05 0.028-0.144z"/>
<path transform="matrix(39.089,0,0,39.089,124.65,96.042)" d="m0.203-0.282-6e-3 -0.14 0.11 0.032-0.016 0.09zm-0.202-0.24 0.042 0.496 0.16-8e-3v-0.15l0.128 0.184 0.18-0.09-0.142-0.122 0.082-0.06 0.032-0.158-0.18-0.13z"/>
</g>
<path d="m67.861 91.434-3.289 6.544-13.546 1.241-9.971-7.131 3.721-6.065-3.861-1.952 6.787-11.58 11.782-1.66 10.24 5.739-0.157 0.296-1.437-0.173-0.165 3.197-1.695 3.199 1.492 0.713-0.374 7.236zm-19.158-4.969-2.853 4.652 6.176 4.417 10.241-0.939 3.831-7.622-10.711-5.12 1.29-2.189 5.473 3.557 2.775-5.238-6.137-3.44-8.873 1.251-3.987 6.801 10.436 5.277-1.368 2.072z"/>
<path d="m64.492 77.74 0.262-5.058 15.793 1.901-0.169 1.423 7.726 1.155 1.084 14.474-0.118 0.689-5.411 5.934-13.277-0.05-6.661-5.571 0.054-1.043 2.323-4.621-2.033-0.972 0.367-7.087 0.493-0.931zm3.638-1.047-0.742 14.345 4.299 3.597 10.398 0.039 3.635-3.987 1.72-10.007-7.583-1.134-0.508 9.108-4.144 0.625 1.368-11.57z"/>
<path d="m110.02 77.015-2.492 10.505 0.39 1.36-5.591 4.166-2.857-0.168-0.036 5.188-13.314 0.565-0.581-7.75 0.177-0.194 1.72-10.007-2.691-0.402-0.582-7.768 16.435-2.254zm-22.037-1.417 1.447 19.31 6.449-0.273 0.039-5.551 5.316 0.313 3.987-2.971 1.642-7.271-7.192-5.159zm7.896 9.421-0.195-5.395 4.26 1.173-0.82 3.831z"/>
<path d="m127 75.347-2.307 0.29 1.641 19.388 0.685-0.034 0.496 3.996-20.679-0.932-3.002-10.448 0.041-0.174 1.351-1.007 1.642-7.271-0.879-0.631 1.344-5.668zm-16.927 1.463-2.54 10.71 2.032 7.075 13.877 0.626-0.665-5.355-7.27 0.43-0.235-1.955 5.16 0.704 0.899-4.261-5.707-0.625 0.469-1.837 7.388 1.954 1.094-5.629z"/>
<path d="m121.32 78.235-0.484-5.719 16.613-2.091 10.049 7.258-1.984 9.796-0.684 0.501 6.212 5.337-14.62 7.311-1.697-2.439-11.666 0.583-0.303-3.582 0.685 0.031-0.665-5.355-0.469 0.027-0.513-6.063 1.686 0.446 1.094-5.629zm3.372-2.598 1.641 19.388 6.255-0.312v-5.864l5.003 7.193 7.036-3.518-5.551-4.769 3.206-2.345 1.25-6.176-7.036-5.082zm7.896 9.382-0.235-5.473 4.3 1.251-0.626 3.518z"/>
<path transform="matrix(39.089,0,0,39.089,45.869,122.23)" d="m0.178-0.544-0.182 0.425 0.186 0.084 0.076-0.242 0.073 0.118 0.101-0.086 2e-3 0.245 0.197-0.012-0.063-0.485-0.124-0.018-0.09 0.127-0.041-0.145z" fill-rule="nonzero"/>
<path transform="matrix(39.089,0,0,39.089,71.355,122.23)" d="m0.224-0.245 0.026-0.102h0.023l0.028 0.112zm-0.208 0.191 0.164 0.036 0.02-0.098 0.121-8e-3 0.019 0.107 0.178-0.019-0.128-0.426-0.244-0.03z" fill-rule="nonzero"/>
<path transform="matrix(39.089,0,0,39.089,92.424,122.23)" d="m0.203-0.282-6e-3 -0.14 0.11 0.032-0.016 0.09zm-0.202-0.24 0.042 0.496 0.16-8e-3v-0.15l0.128 0.184 0.18-0.09-0.142-0.122 0.082-0.06 0.032-0.158-0.18-0.13z" fill-rule="nonzero"/>
<path transform="matrix(39.089,0,0,39.089,112.48,122.23)" d="m0.022-0.029 0.145-9e-3 0.073-0.403-0.191-0.04z" fill-rule="nonzero"/>
<path transform="matrix(39.089,0,0,39.089,122.33,122.23)" d="m0.209-0.181-8e-3 -0.113 0.122-0.037 0.056 0.106-0.08 0.076zm-0.188-0.137 0.048 0.242 0.22 0.086 0.216-0.094 0.028-0.244-0.134-0.136-0.216-0.03z" fill-rule="nonzero"/>
<path d="m73.987 120.56 0.59 4.54-15.291 0.932-0.047-5.684-1.283 1.093-0.931-1.505-1.837 5.849-14.147-6.389 9.51-22.206 10.321 0.841 0.242 0.857 0.457-0.645 9.7 1.408 2.065 15.9-1.356 4.568zm-21.16-19.594-7.114 16.613 7.27 3.283 2.971-9.459 2.854 4.612 3.947-3.362 0.079 9.577 7.7-0.469-2.462-18.958-4.847-0.704-3.518 4.965-1.603-5.668z"/>
<path d="m69.69 115.26 4.803-16.183 14.862 1.827 4.219 14.042 0.531 6.268 1.332-0.067 0.835 2.777-14.567 1.555-0.218-1.227-0.316 1.549-13.716-3.011 0.254-0.857 2.825-0.172zm2.29 4.859 6.411 1.408 0.782-3.831 4.729-0.313 0.743 4.183 6.958-0.743-5.003-16.652-9.538-1.172zm8.131-7.466 1.016-3.987h0.899l1.095 4.378zm1.388-0.819 0.079 0.061 0.581-0.451-0.135-0.199z"/>
<path d="m114.76 103.51-0.372-0.078-0.405 6.774-0.702 3.465-0.684 0.501 1.093 0.939-0.358 5.99 2.621-0.163-11.764 5.882-1.697-2.438-11.666 0.583-0.34-4.019 1.113-0.119-1.564-5.204-1.432-16.915 16.613-2.09zm-22.301-1.68 1.642 19.388 6.254-0.313v-5.863l5.003 7.192 7.036-3.518-5.55-4.769 3.205-2.345 1.251-6.176-7.036-5.082zm7.896 9.381-0.235-5.472 4.3 1.251-0.625 3.518z"/>
<path d="m110.71 105 0.354-5.919 14.933 3.127-1.015 5.6-1.837 1.997 0.771 3.89-1.893 10.453-12.503 0.776 0.293-4.916 2.582-1.291-2.382-2.047 0.414-6.927 0.874-4.316zm2.623 16.102 5.668-0.352 2.854-15.753-7.466-1.564z"/>
<path d="m121.65 106.14 6.467-7.026 11.503 1.597 7.293 7.402-1.525 13.288-11.69 5.087-11.802-4.613-1.618-8.159zm1.499 3.656 1.876 9.459 8.599 3.362 8.444-3.674 1.094-9.538-5.238-5.316-8.443-1.173zm7.348 5.355-0.312-4.417 4.768-1.446 2.189 4.143-3.127 2.971z"/>
<path transform="matrix(59.564,0,0,59.564,42.072,157.97)" d="m0.287-0.03-0.176-0.02-0.09-0.46 0.234-0.032 0.018 0.292 0.094-0.104 0.078 0.122 0.062-0.234 0.184 0.058-0.124 0.384-0.168 8e-3 -0.048-0.124z" fill-rule="nonzero"/>
<path transform="matrix(59.564,0,0,59.564,84.541,157.97)" d="m0.022-0.029 0.145-9e-3 0.073-0.403-0.191-0.04z" fill-rule="nonzero"/>
<path transform="matrix(59.564,0,0,59.564,99.551,157.97)" d="m0.021-0.512 0.068 0.491 0.161-0.014-4e-3 -0.152 0.147 0.163 0.144-0.12-0.18-0.146 0.144-0.158-0.156-0.109-0.12 0.193-0.017-0.166z" fill-rule="nonzero"/>
<path transform="matrix(59.564,0,0,59.564,132.85,157.97)" d="m0.022-0.029 0.145-9e-3 0.073-0.403-0.191-0.04z" fill-rule="nonzero"/>
<path d="m87.247 132.88-8.758 27.122-15.057 0.717-1.103-2.85-1.244 2.138-15.41-1.751-6.592-33.691 21.513-2.942 0.786 12.75 3.039-3.363 2.784 4.354 2.566-9.686 17.575 5.539zm-28.08 23.308-10.483-1.192-5.361-27.399 13.938-1.906 1.072 17.392 5.599-6.194 4.646 7.267 3.693-13.938 10.96 3.454-7.386 22.873-10.007 0.476-2.859-7.385z"/>
<path d="m100.94 128.49 0.916 6.613-4.348 24.005-15.472 0.96 2.096-35.098zm-15.091 27.756 8.637-0.536 4.348-24.004-11.376-2.383z"/>
<path d="m97.743 131.47-0.998-7.205 18.393-1.771 0.308 3.004 3.609-5.805 15.727 10.989-8.768 9.62 8.675 7.036-0.256 4.297-11.826 9.854-4.571-5.068 0.072 2.734-16.334 1.421-3.539-25.556 0.601-3.321zm3.059-4 4.05 29.246 9.59-0.834-0.238-9.054 8.756 9.709 8.577-7.148-10.722-8.696 8.577-9.411-9.291-6.493-7.148 11.496-1.013-9.887z"/>
<path d="m131.01 148.96 1.434-23.997 18.844 3.947-5.469 30.191-15.472 0.96 0.609-10.185 0.584-0.487zm3.151 7.279 8.636-0.536 4.348-24.004-11.376-2.383z"/>
</g>
<g transform="matrix(.95108 0 0 .95108 -15.528 -57.575)">
<g fill="#fff" fill-rule="nonzero">
<path transform="matrix(39.089,0,0,39.089,45.224,96.042)" d="m0.089-0.245-0.073 0.119 0.158 0.113 0.262-0.024 0.098-0.195-0.274-0.131 0.033-0.056 0.14 0.091 0.071-0.134-0.157-0.088-0.227 0.032-0.102 0.174 0.267 0.135-0.035 0.053z"/>
<path transform="matrix(39.089,0,0,39.089,66.528,96.042)" d="m0.041-0.495-0.019 0.367 0.11 0.092 0.266 1e-3 0.093-0.102 0.044-0.256-0.194-0.029-0.013 0.233-0.106 0.016 0.035-0.296z"/>
<path transform="matrix(39.089,0,0,39.089,87.518,96.042)" d="m0.214-0.282-5e-3 -0.138 0.109 0.03-0.021 0.098zm-0.202-0.241 0.037 0.494 0.165-7e-3 1e-3 -0.142 0.136 8e-3 0.102-0.076 0.042-0.186-0.184-0.132z"/>
<path transform="matrix(39.089,0,0,39.089,106.71,96.042)" d="m0.086-0.492-0.065 0.274 0.052 0.181 0.355 0.016-0.017-0.137-0.186 0.011-6e-3 -0.05 0.132 0.018 0.023-0.109-0.146-0.016 0.012-0.047 0.189 0.05 0.028-0.144z"/>
<path transform="matrix(39.089,0,0,39.089,124.65,96.042)" d="m0.203-0.282-6e-3 -0.14 0.11 0.032-0.016 0.09zm-0.202-0.24 0.042 0.496 0.16-8e-3v-0.15l0.128 0.184 0.18-0.09-0.142-0.122 0.082-0.06 0.032-0.158-0.18-0.13z"/>
</g>
<path d="m67.507 88.722-3.923 7.806-12.129 1.111-8.345-5.968 3.844-6.265-3.891-1.968 5.588-9.531 10.535-1.485 8.481 4.753-3.501 6.608 3.51 1.678zm-18.804-2.257-2.853 4.652 6.176 4.417 10.241-0.939 3.831-7.622-10.711-5.12 1.29-2.189 5.473 3.557 2.775-5.238-6.137-3.44-8.873 1.251-3.987 6.801 10.436 5.277-1.368 2.072z" fill="#fa0e24"/>
<path d="m65.563 86.718 0.638-12.317 12.643 1.522-0.163 1.38 9.541 1.426 0.494 6.599-1.082 6.294-4.649 5.1-12.044-0.045-5.649-4.725 0.195-3.765 0.611-1.214zm2.567-10.025-0.742 14.345 4.299 3.597 10.398 0.039 3.635-3.987 1.72-10.007-7.583-1.134-0.508 9.108-4.144 0.625 1.368-11.57z" fill="#fa0e24"/>
<path d="m86.304 80.51-0.5-6.677 14.401-1.974 8.955 6.425-2.106 9.33-5.192 3.868-3.91-0.23-0.038 5.343-10.372 0.44-0.884-11.805 0.782-4.55zm1.683-4.912 1.447 19.31 6.449-0.273 0.039-5.551 5.316 0.313 3.987-2.971 1.642-7.271-7.192-5.159zm7.896 9.421-0.195-5.395 4.26 1.173-0.82 3.831z" fill="#fa0e24"/>
<path d="m124.77 76.611 0.692 8.167-0.396 2.034-1.968-0.521-0.322 1.526 1.79-0.106 1.199 9.662-17.765-0.801-2.586-9.002 3.089-13.02zm-14.702 0.199-2.54 10.71 2.032 7.075 13.877 0.626-0.665-5.355-7.27 0.43-0.235-1.955 5.16 0.704 0.899-4.261-5.707-0.625 0.469-1.837 7.388 1.954 1.094-5.629z" fill="#fa0e24"/>
<path d="m122.88 78.432-0.388-4.579 14.553-1.831 8.757 6.326-1.669 8.244-1.765 1.291 5.929 5.094-11.37 5.685-2.29-3.292v1.288l-10.171 0.509-1.094-12.921 0.112 0.03 1.094-5.629zm1.816-2.795 1.641 19.388 6.255-0.312v-5.864l5.003 7.193 7.036-3.518-5.551-4.769 3.206-2.345 1.25-6.176-7.036-5.082zm7.896 9.382-0.235-5.473 4.3 1.251-0.626 3.518z" fill="#fa0e24"/>
<path transform="matrix(39.089,0,0,39.089,45.869,122.23)" d="m0.178-0.544-0.182 0.425 0.186 0.084 0.076-0.242 0.073 0.118 0.101-0.086 2e-3 0.245 0.197-0.012-0.063-0.485-0.124-0.018-0.09 0.127-0.041-0.145z" fill="#fff" fill-rule="nonzero"/>
<path transform="matrix(39.089,0,0,39.089,71.355,122.23)" d="m0.224-0.245 0.026-0.102h0.023l0.028 0.112zm-0.208 0.191 0.164 0.036 0.02-0.098 0.121-8e-3 0.019 0.107 0.178-0.019-0.128-0.426-0.244-0.03z" fill="#fff" fill-rule="nonzero"/>
<path transform="matrix(39.089,0,0,39.089,92.424,122.23)" d="m0.203-0.282-6e-3 -0.14 0.11 0.032-0.016 0.09zm-0.202-0.24 0.042 0.496 0.16-8e-3v-0.15l0.128 0.184 0.18-0.09-0.142-0.122 0.082-0.06 0.032-0.158-0.18-0.13z" fill="#fff" fill-rule="nonzero"/>
<path transform="matrix(39.089,0,0,39.089,112.48,122.23)" d="m0.022-0.029 0.145-9e-3 0.073-0.403-0.191-0.04z" fill="#fff" fill-rule="nonzero"/>
<path transform="matrix(39.089,0,0,39.089,122.33,122.23)" d="m0.209-0.181-8e-3 -0.113 0.122-0.037 0.056 0.106-0.08 0.076zm-0.188-0.137 0.048 0.242 0.22 0.086 0.216-0.094 0.028-0.244-0.134-0.136-0.216-0.03z" fill="#fff" fill-rule="nonzero"/>
<path d="m72.395 120.21 0.449 3.459-12.038 0.733-0.06-7.352-2.425 2.065-1.755-2.836-2.323 7.396-11.2-5.058 8.483-19.809 8.159 0.665 0.826 2.919 1.769-2.496 7.62 1.106 2.361 18.174-0.281 0.943zm-19.568-19.244-7.114 16.613 7.27 3.283 2.971-9.459 2.854 4.612 3.947-3.362 0.079 9.577 7.7-0.469-2.462-18.958-4.847-0.704-3.518 4.965-1.603-5.668z" fill="#fa0e24"/>
<path d="m70.177 119.01 5.417-18.251 12.58 1.546 6.097 20.291-11.306 1.207-0.756-4.257-1.344 0.089-0.885 4.335-9.926-2.179 0.48-0.029zm1.803 1.11 6.411 1.408 0.782-3.831 4.729-0.313 0.743 4.183 6.958-0.743-5.003-16.652-9.538-1.172zm8.131-7.466 1.016-3.987h0.899l1.095 4.378z" fill="#fa0e24"/>
<path d="m113.37 120.51-8.677 4.339-2.29-3.292v1.287l-10.17 0.509-1.974-23.313 14.552-1.831 8.758 6.325-1.67 8.245-1.765 1.291 3.444 2.959zm-20.908-18.686 1.642 19.388 6.254-0.313v-5.863l5.003 7.192 7.036-3.518-5.55-4.769 3.205-2.345 1.251-6.176-7.036-5.082zm7.896 9.381-0.235-5.472 4.3 1.251-0.625 3.518z" fill="#fa0e24"/>
<path d="m111.48 117.92 1.015-16.98 11.733 2.457-3.494 19.289-9.574 0.594 0.243-4.07 0.998-0.499zm1.859 3.176 5.668-0.352 2.854-15.753-7.466-1.564z" fill="#fa0e24"/>
<path d="m121.14 108.96 7.563-8.216 10.191 1.416 6.412 6.507-1.34 11.681-10.299 4.482-10.429-4.077-2.213-11.156zm2.01 0.837 1.876 9.459 8.599 3.362 8.444-3.674 1.094-9.538-5.238-5.316-8.443-1.173zm7.348 5.355-0.312-4.417 4.768-1.446 2.189 4.143-3.127 2.971zm1.843-2.934 0.103 1.455 1.074 0.382 1.093-1.038-0.677-1.282z" fill="#fa0e24"/>
<path transform="matrix(59.564,0,0,59.564,42.072,157.97)" d="m0.287-0.03-0.176-0.02-0.09-0.46 0.234-0.032 0.018 0.292 0.094-0.104 0.078 0.122 0.062-0.234 0.184 0.058-0.124 0.384-0.168 8e-3 -0.048-0.124z" fill="#fff" fill-rule="nonzero"/>
<path transform="matrix(59.564,0,0,59.564,84.541,157.97)" d="m0.022-0.029 0.145-9e-3 0.073-0.403-0.191-0.04z" fill="#fff" fill-rule="nonzero"/>
<path transform="matrix(59.564,0,0,59.564,99.551,157.97)" d="m0.021-0.512 0.068 0.491 0.161-0.014-4e-3 -0.152 0.147 0.163 0.144-0.12-0.18-0.146 0.144-0.158-0.156-0.109-0.12 0.193-0.017-0.166z" fill="#fff" fill-rule="nonzero"/>
<path transform="matrix(59.564,0,0,59.564,132.85,157.97)" d="m0.022-0.029 0.145-9e-3 0.073-0.403-0.191-0.04z" fill="#fff" fill-rule="nonzero"/>
<path d="m60.075 138.1 4.136-4.576 3.582 5.602 3.05-11.509 14.966 4.718-8.453 26.179-12.893 0.614-1.856-4.793-2.344 4.029-13.299-1.511-6.064-30.995 18.266-2.498zm-0.908 18.082-10.483-1.192-5.361-27.399 13.938-1.906 1.072 17.392 5.599-6.194 4.646 7.267 3.693-13.938 10.96 3.454-7.386 22.873-10.007 0.476-2.859-7.385z" fill="#fa0e24"/>
<path d="m101.17 130.1 0.017 0.122-4.968 27.426-12.543 0.778 1.887-31.594zm-15.315 26.142 8.637-0.536 4.348-24.004-11.376-2.383z" fill="#fa0e24"/>
<path d="m134.56 149.54-11.8 9.834-6.364-7.057 0.143 5.442-13.444 1.169-4.609-33.283 15.284-1.471 0.609 5.954 5.126-8.244 12.969 9.062-8.686 9.53 10.791 8.753zm-33.756-22.063 4.05 29.246 9.59-0.834-0.238-9.054 8.756 9.709 8.577-7.148-10.722-8.696 8.577-9.411-9.291-6.493-7.148 11.496-1.013-9.887z" fill="#fa0e24"/>
<path d="m131.98 158.43 12.543-0.778 4.988-27.54-15.643-3.276zm2.18-2.184 8.636-0.536 4.348-24.004-11.376-2.383z" fill="#fa0e24"/>
</g>
</g>
</svg>
